PathFileType	4	(X/Y/Z)	./resultDataOpenSim/trcMotMarkerGrf/sub10/qtm-02-05.trc
DataRate	CameraRate	NumFrames	NumMarkers	Units	OrigDataRate	OrigDataStartFrame	OrigNumFrames
250.000000	250.000000	6	24	m	250.000000	1	523
Frame#	Time	L.Toe.Tip			R.Toe.Tip			L.Ankle.Lat			R.Ankle.Lat			L.Ankle.Med			R.Ankle.Med			L.Heel			R.Heel			L.Knee.Lat			R.Knee.Lat			L.Knee.Med			R.Knee.Med			L.Thigh.Upper			R.Thigh.Upper			L.ASIS			R.ASIS			V.Sacral			L.Acromium			R.Acromium			C7			L.Elbow			R.Elbow			L.Wrist.Lat			R.Wrist.Lat
		X1	Y1	Z1	X2	Y2	Z2	X3	Y3	Z3	X4	Y4	Z4	X5	Y5	Z5	X6	Y6	Z6	X7	Y7	Z7	X8	Y8	Z8	X9	Y9	Z9	X10	Y10	Z10	X11	Y11	Z11	X12	Y12	Z12	X13	Y13	Z13	X14	Y14	Z14	X15	Y15	Z15	X16	Y16	Z16	X17	Y17	Z17	X18	Y18	Z18	X19	Y19	Z19	X20	Y20	Z20	X21	Y21	Z21	X22	Y22	Z22	X23	Y23	Z23	X24	Y24	Z24

1	0	-1.4907242	0.039062369	-0.092204644	-0.93136945	0.1054405	0.06213489	-1.6239326	0.069986395	-0.097321198	-1.0659759	0.069582168	0.083513266	-1.608151	0.086517192	-0.013190422	-1.0524759	0.10713311	0.0041166713	NaN	NaN	NaN	-1.0974179	0.02974253	0.028225894	-1.4844564	0.43224671	-0.13610789	-1.1721862	0.45500402	0.12872508	-1.4772437	0.40693136	-0.015105321	-1.1580865	0.46626012	-0.0009207456	-1.3963243	0.81437187	-0.19537128	-1.3271244	0.84218037	0.18331491	-1.317883	0.91933952	-0.14235783	-1.2700917	0.935529	0.10157729	NaN	NaN	NaN	-1.3044064	1.3852998	-0.15920704	-1.3357918	1.3871278	0.16236011	-1.3973719	1.4296624	-0.009738627	-1.3724944	1.0427624	-0.23171937	-1.5066326	1.0814374	0.19815748	-1.1804989	0.88631621	-0.2135461	-1.4630573	0.86598127	0.29809388
2	0.004	-1.49073	0.039036893	-0.092182137	-0.91858591	0.10955177	0.061380419	-1.6237085	0.070466079	-0.097231973	-1.052781	0.07044307	0.084174796	-1.6076736	0.08684134	-0.013179549	-1.0407851	0.10833489	0.0046061833	NaN	NaN	NaN	-1.0838803	0.030077573	0.029065524	-1.4820856	0.43182546	-0.13612032	-1.16767	0.45356126	0.12967512	-1.4748498	0.40646332	-0.015116864	-1.1547685	0.46419992	-0.00023839048	-1.3925466	0.81350748	-0.19554845	-1.3219099	0.84112383	0.183252	-1.3137575	0.91838816	-0.1425159	-1.2652185	0.93462274	0.10114706	NaN	NaN	NaN	-1.3003144	1.3843432	-0.15930648	-1.3316434	1.3862134	0.16228144	-1.3932425	1.4285249	-0.010038126	-1.3659506	1.0412115	-0.23171847	-1.5033564	1.0813061	0.19793709	-1.172224	0.88702237	-0.21217828	-1.4619268	0.86589738	0.29872317
3	0.008	-1.4907475	0.039014149	-0.092158939	-0.90609145	0.11357877	0.060539904	-1.6234918	0.070972931	-0.097150445	-1.0399343	0.071342821	0.084828698	-1.6072428	0.087208028	-0.013159323	-1.0293238	0.10954156	0.0051047545	NaN	NaN	NaN	-1.0706136	0.030485409	0.029969914	-1.479645	0.43144391	-0.1361577	-1.1632626	0.45212524	0.13060167	-1.4724017	0.40598585	-0.015123109	-1.1514801	0.4621245	0.00047437128	-1.3887625	0.81265351	-0.19569689	-1.3168188	0.84003332	0.18316761	-1.3095754	0.9174621	-0.14265773	-1.2602846	0.93371346	0.10073893	NaN	NaN	NaN	-1.2962007	1.3833767	-0.15938918	-1.3273801	1.3852846	0.16220986	-1.38906	1.4274072	-0.010172313	-1.3594142	1.0396733	-0.23170441	-1.5001433	1.081109	0.19763204	-1.1639543	0.88775868	-0.21078847	-1.4608806	0.86580733	0.29934313
4	0.012	-1.4907779	0.038997124	-0.092136643	-0.89411102	0.11738026	0.059612524	-1.6232782	0.071535337	-0.09708133	-1.0276295	0.072275499	0.085466151	-1.6068372	0.087652692	-0.013117671	-1.0182169	0.11076237	0.0056320721	NaN	NaN	NaN	-1.0577889	0.03099713	0.030962956	-1.4771217	0.43111124	-0.13621817	-1.1589313	0.4507473	0.13150943	-1.4698783	0.40550179	-0.015121761	-1.1482053	0.4600412	0.0012518441	-1.3849499	0.81182598	-0.1957891	-1.3118149	0.83890775	0.18306307	-1.3053331	0.91656794	-0.14277996	-1.2553232	0.93278012	0.10033399	NaN	NaN	NaN	-1.2920633	1.3824	-0.15945228	-1.3229605	1.3843364	0.16215526	-1.3848144	1.4263045	-0.010135992	-1.3528714	1.0381569	-0.23165949	-1.496961	1.0808152	0.19722224	-1.1556852	0.88853684	-0.20936235	-1.4599298	0.86571078	0.29993328
5	0.016	-1.4908097	0.038985742	-0.092119503	-0.88270991	0.12083259	0.058667657	-1.6230533	0.072162802	-0.097022758	-1.0159183	0.07321455	0.086076903	-1.6064054	0.088179125	-0.013046188	-1.007519	0.11198867	0.0062120515	NaN	NaN	NaN	-1.0454977	0.031599351	0.032024535	-1.4746344	0.43080998	-0.13628816	-1.1544512	0.44954365	0.13243778	-1.467292	0.40502097	-0.01511257	-1.144887	0.45798855	0.0021182503	-1.3810917	0.81105196	-0.19579581	-1.3067842	0.83776169	0.18295394	-1.301079	0.91569383	-0.14289665	-1.2503802	0.93181207	0.099910621	NaN	NaN	NaN	-1.2879213	1.381426	-0.15950664	-1.3184519	1.3833808	0.16211824	-1.3805448	1.4252032	-0.01005547	-1.346313	1.0366645	-0.23156306	-1.4937176	1.0804527	0.19676382	-1.1474535	0.88934998	-0.20792664	-1.4589979	0.86561327	0.30047673
6	0.02	-1.490826	0.038977273	-0.092112496	-0.87181583	0.12389115	0.05780289	-1.6227993	0.072837588	-0.096968137	-1.0047518	0.074155975	0.086677423	-1.6059267	0.088755583	-0.012947902	-0.9972474	0.11318873	0.0068612146	NaN	NaN	NaN	-1.0337707	0.032263736	0.033130124	-1.4723365	0.43051507	-0.13636385	-1.1493976	0.44866031	0.13346571	-1.4646611	0.40454829	-0.015098849	-1.1414499	0.45601331	0.003075632	-1.3771951	0.81035904	-0.1957367	-1.3016539	0.83659173	0.18284772	-1.2968545	0.91482115	-0.14303483	-1.2454442	0.93081509	0.099470238	NaN	NaN	NaN	-1.283784	1.380463	-0.15956331	-1.3139354	1.3824309	0.16209442	-1.3762827	1.4240999	-0.010033673	-1.3397382	1.0351913	-0.23139951	-1.4903449	1.0801341	0.19638711	-1.1393128	0.89018586	-0.20652944	-1.457964	0.86551939	0.30097993
